<mxfile host="app.diagrams.net" modified="2024-03-10T22:19:57.917Z" agent="Mozilla/5.0 (Windows NT 10.0; Win64; x64) AppleWebKit/537.36 (KHTML, like Gecko) Chrome/122.0.0.0 Safari/537.36" etag="Mvz_EU2LbMQaZMlD63QZ" version="23.1.5" type="github">
  <diagram name="Page-1" id="eIcaw5Ktxpqwb3rYndxn">
    <mxGraphModel dx="2438" dy="1078" grid="1" gridSize="10" guides="1" tooltips="1" connect="1" arrows="1" fold="1" page="1" pageScale="1" pageWidth="850" pageHeight="1100" background="#CCFFFF" math="0" shadow="0">
      <root>
        <mxCell id="0" />
        <mxCell id="1" parent="0" />
        <mxCell id="yzI9sUqMzmRR-9goqgxq-1" value="Process user Input" style="rounded=1;whiteSpace=wrap;html=1;absoluteArcSize=1;arcSize=14;strokeWidth=2;" parent="1" vertex="1">
          <mxGeometry x="57.5" y="670" width="215" height="230" as="geometry" />
        </mxCell>
        <mxCell id="yzI9sUqMzmRR-9goqgxq-8" style="edgeStyle=orthogonalEdgeStyle;rounded=0;orthogonalLoop=1;jettySize=auto;html=1;exitX=0.5;exitY=1;exitDx=0;exitDy=0;exitPerimeter=0;" parent="1" source="yzI9sUqMzmRR-9goqgxq-2" target="yzI9sUqMzmRR-9goqgxq-7" edge="1">
          <mxGeometry relative="1" as="geometry" />
        </mxCell>
        <mxCell id="yzI9sUqMzmRR-9goqgxq-2" value="Welcome to Toni&#39;s Store where getting ready for battle is made easy!" style="strokeWidth=2;html=1;shape=mxgraph.flowchart.display;whiteSpace=wrap;" parent="1" vertex="1">
          <mxGeometry x="55" y="140" width="220" height="120" as="geometry" />
        </mxCell>
        <mxCell id="yzI9sUqMzmRR-9goqgxq-6" style="edgeStyle=orthogonalEdgeStyle;rounded=0;orthogonalLoop=1;jettySize=auto;html=1;exitX=0.5;exitY=1;exitDx=0;exitDy=0;exitPerimeter=0;" parent="1" source="yzI9sUqMzmRR-9goqgxq-3" target="yzI9sUqMzmRR-9goqgxq-2" edge="1">
          <mxGeometry relative="1" as="geometry" />
        </mxCell>
        <mxCell id="yzI9sUqMzmRR-9goqgxq-3" value="Start" style="strokeWidth=2;html=1;shape=mxgraph.flowchart.start_1;whiteSpace=wrap;" parent="1" vertex="1">
          <mxGeometry x="60" y="10" width="210" height="90" as="geometry" />
        </mxCell>
        <mxCell id="yzI9sUqMzmRR-9goqgxq-4" value="If entered &#39;V&#39;" style="strokeWidth=2;html=1;shape=mxgraph.flowchart.decision;whiteSpace=wrap;" parent="1" vertex="1">
          <mxGeometry x="380" y="690" width="205" height="190" as="geometry" />
        </mxCell>
        <mxCell id="yzI9sUqMzmRR-9goqgxq-9" style="edgeStyle=orthogonalEdgeStyle;rounded=0;orthogonalLoop=1;jettySize=auto;html=1;exitX=0.5;exitY=1;exitDx=0;exitDy=0;exitPerimeter=0;entryX=0.5;entryY=0;entryDx=0;entryDy=0;" parent="1" source="yzI9sUqMzmRR-9goqgxq-7" target="yzI9sUqMzmRR-9goqgxq-1" edge="1">
          <mxGeometry relative="1" as="geometry" />
        </mxCell>
        <mxCell id="yzI9sUqMzmRR-9goqgxq-7" value="&lt;br&gt;&lt;br&gt;&lt;br&gt;&lt;br&gt;&lt;br&gt;Please enter a command from the list below:&lt;br&gt;V: View Products&lt;br&gt;A: Add a Product to Shopping Cart&lt;br&gt;X: Remove a product from Shopping Cart&lt;br&gt;R: Return an item&amp;nbsp;&lt;br&gt;S; View Cart&lt;br&gt;C: Checkout&lt;br&gt;M: Back to Main Menu&lt;br&gt;E: Exit&lt;br&gt;&lt;div&gt;&lt;br&gt;&lt;/div&gt;" style="strokeWidth=2;html=1;shape=mxgraph.flowchart.display;whiteSpace=wrap;" parent="1" vertex="1">
          <mxGeometry x="12.5" y="320" width="305" height="240" as="geometry" />
        </mxCell>
        <mxCell id="yzI9sUqMzmRR-9goqgxq-38" style="edgeStyle=orthogonalEdgeStyle;rounded=0;orthogonalLoop=1;jettySize=auto;html=1;entryX=0;entryY=0.5;entryDx=0;entryDy=0;" parent="1" source="yzI9sUqMzmRR-9goqgxq-11" target="yzI9sUqMzmRR-9goqgxq-30" edge="1">
          <mxGeometry relative="1" as="geometry" />
        </mxCell>
        <mxCell id="yzI9sUqMzmRR-9goqgxq-41" value="Yes" style="edgeLabel;html=1;align=center;verticalAlign=middle;resizable=0;points=[];" parent="yzI9sUqMzmRR-9goqgxq-38" vertex="1" connectable="0">
          <mxGeometry x="-0.0441" y="-4" relative="1" as="geometry">
            <mxPoint as="offset" />
          </mxGeometry>
        </mxCell>
        <mxCell id="yzI9sUqMzmRR-9goqgxq-11" value="If entered &#39;C&#39;" style="strokeWidth=2;html=1;shape=mxgraph.flowchart.decision;whiteSpace=wrap;" parent="1" vertex="1">
          <mxGeometry x="380" y="5010" width="205" height="190" as="geometry" />
        </mxCell>
        <mxCell id="yzI9sUqMzmRR-9goqgxq-12" value="If entered &#39;R&#39;" style="strokeWidth=2;html=1;shape=mxgraph.flowchart.decision;whiteSpace=wrap;" parent="1" vertex="1">
          <mxGeometry x="380" y="3690" width="205" height="190" as="geometry" />
        </mxCell>
        <mxCell id="yzI9sUqMzmRR-9goqgxq-13" value="If entered &#39;X&#39;" style="strokeWidth=2;html=1;shape=mxgraph.flowchart.decision;whiteSpace=wrap;" parent="1" vertex="1">
          <mxGeometry x="380" y="2540" width="205" height="190" as="geometry" />
        </mxCell>
        <mxCell id="yzI9sUqMzmRR-9goqgxq-14" value="If entered &#39;A&#39;" style="strokeWidth=2;html=1;shape=mxgraph.flowchart.decision;whiteSpace=wrap;" parent="1" vertex="1">
          <mxGeometry x="380" y="1555" width="205" height="190" as="geometry" />
        </mxCell>
        <mxCell id="yzI9sUqMzmRR-9goqgxq-15" style="edgeStyle=orthogonalEdgeStyle;rounded=0;orthogonalLoop=1;jettySize=auto;html=1;entryX=0;entryY=0.5;entryDx=0;entryDy=0;entryPerimeter=0;" parent="1" source="yzI9sUqMzmRR-9goqgxq-1" target="yzI9sUqMzmRR-9goqgxq-4" edge="1">
          <mxGeometry relative="1" as="geometry" />
        </mxCell>
        <mxCell id="yzI9sUqMzmRR-9goqgxq-16" value="No" style="edgeStyle=orthogonalEdgeStyle;rounded=0;orthogonalLoop=1;jettySize=auto;html=1;exitX=0.5;exitY=1;exitDx=0;exitDy=0;exitPerimeter=0;entryX=0.5;entryY=0;entryDx=0;entryDy=0;entryPerimeter=0;" parent="1" source="yzI9sUqMzmRR-9goqgxq-4" target="yzI9sUqMzmRR-9goqgxq-14" edge="1">
          <mxGeometry relative="1" as="geometry" />
        </mxCell>
        <mxCell id="yzI9sUqMzmRR-9goqgxq-17" value="no" style="edgeLabel;html=1;align=center;verticalAlign=middle;resizable=0;points=[];" parent="yzI9sUqMzmRR-9goqgxq-16" vertex="1" connectable="0">
          <mxGeometry x="-0.0278" relative="1" as="geometry">
            <mxPoint y="-1" as="offset" />
          </mxGeometry>
        </mxCell>
        <mxCell id="yzI9sUqMzmRR-9goqgxq-18" style="edgeStyle=orthogonalEdgeStyle;rounded=0;orthogonalLoop=1;jettySize=auto;html=1;exitX=0.5;exitY=1;exitDx=0;exitDy=0;exitPerimeter=0;entryX=0.5;entryY=0;entryDx=0;entryDy=0;entryPerimeter=0;" parent="1" source="yzI9sUqMzmRR-9goqgxq-14" target="yzI9sUqMzmRR-9goqgxq-13" edge="1">
          <mxGeometry relative="1" as="geometry" />
        </mxCell>
        <mxCell id="yzI9sUqMzmRR-9goqgxq-22" value="No" style="edgeLabel;html=1;align=center;verticalAlign=middle;resizable=0;points=[];" parent="yzI9sUqMzmRR-9goqgxq-18" vertex="1" connectable="0">
          <mxGeometry x="-0.0611" relative="1" as="geometry">
            <mxPoint as="offset" />
          </mxGeometry>
        </mxCell>
        <mxCell id="yzI9sUqMzmRR-9goqgxq-19" style="edgeStyle=orthogonalEdgeStyle;rounded=0;orthogonalLoop=1;jettySize=auto;html=1;exitX=0.5;exitY=1;exitDx=0;exitDy=0;exitPerimeter=0;entryX=0.5;entryY=0;entryDx=0;entryDy=0;entryPerimeter=0;" parent="1" source="yzI9sUqMzmRR-9goqgxq-13" target="yzI9sUqMzmRR-9goqgxq-12" edge="1">
          <mxGeometry relative="1" as="geometry" />
        </mxCell>
        <mxCell id="yzI9sUqMzmRR-9goqgxq-23" value="No" style="edgeLabel;html=1;align=center;verticalAlign=middle;resizable=0;points=[];" parent="yzI9sUqMzmRR-9goqgxq-19" vertex="1" connectable="0">
          <mxGeometry x="-0.0852" y="2" relative="1" as="geometry">
            <mxPoint y="-1" as="offset" />
          </mxGeometry>
        </mxCell>
        <mxCell id="yzI9sUqMzmRR-9goqgxq-20" style="edgeStyle=orthogonalEdgeStyle;rounded=0;orthogonalLoop=1;jettySize=auto;html=1;exitX=0.5;exitY=1;exitDx=0;exitDy=0;exitPerimeter=0;entryX=0.5;entryY=0;entryDx=0;entryDy=0;entryPerimeter=0;" parent="1" source="yzI9sUqMzmRR-9goqgxq-12" target="yzI9sUqMzmRR-9goqgxq-11" edge="1">
          <mxGeometry relative="1" as="geometry" />
        </mxCell>
        <mxCell id="yzI9sUqMzmRR-9goqgxq-24" value="No" style="edgeLabel;html=1;align=center;verticalAlign=middle;resizable=0;points=[];" parent="yzI9sUqMzmRR-9goqgxq-20" vertex="1" connectable="0">
          <mxGeometry x="-0.0317" y="-1" relative="1" as="geometry">
            <mxPoint y="1" as="offset" />
          </mxGeometry>
        </mxCell>
        <mxCell id="yzI9sUqMzmRR-9goqgxq-21" style="edgeStyle=orthogonalEdgeStyle;rounded=0;orthogonalLoop=1;jettySize=auto;html=1;exitX=0.5;exitY=1;exitDx=0;exitDy=0;exitPerimeter=0;entryX=0.5;entryY=0;entryDx=0;entryDy=0;entryPerimeter=0;" parent="1" source="yzI9sUqMzmRR-9goqgxq-11" target="zypE5ITx2ImbV6XnPkiI-3" edge="1">
          <mxGeometry relative="1" as="geometry">
            <mxPoint x="482.5" y="6240" as="targetPoint" />
          </mxGeometry>
        </mxCell>
        <mxCell id="yzI9sUqMzmRR-9goqgxq-25" value="No" style="edgeLabel;html=1;align=center;verticalAlign=middle;resizable=0;points=[];" parent="yzI9sUqMzmRR-9goqgxq-21" vertex="1" connectable="0">
          <mxGeometry x="0.2222" y="3" relative="1" as="geometry">
            <mxPoint as="offset" />
          </mxGeometry>
        </mxCell>
        <mxCell id="yzI9sUqMzmRR-9goqgxq-26" value="Retrieve Available Salable Products" style="rounded=1;whiteSpace=wrap;html=1;absoluteArcSize=1;arcSize=14;strokeWidth=2;" parent="1" vertex="1">
          <mxGeometry x="895" y="680" width="185" height="190" as="geometry" />
        </mxCell>
        <mxCell id="zypE5ITx2ImbV6XnPkiI-9" style="edgeStyle=orthogonalEdgeStyle;rounded=0;orthogonalLoop=1;jettySize=auto;html=1;entryX=0;entryY=0.5;entryDx=0;entryDy=0;entryPerimeter=0;" parent="1" source="yzI9sUqMzmRR-9goqgxq-27" target="zypE5ITx2ImbV6XnPkiI-7" edge="1">
          <mxGeometry relative="1" as="geometry">
            <mxPoint x="1310" y="1005" as="targetPoint" />
          </mxGeometry>
        </mxCell>
        <mxCell id="yzI9sUqMzmRR-9goqgxq-27" value="Retrieve Available Salable Products" style="rounded=1;whiteSpace=wrap;html=1;absoluteArcSize=1;arcSize=14;strokeWidth=2;" parent="1" vertex="1">
          <mxGeometry x="890" y="1555" width="185" height="190" as="geometry" />
        </mxCell>
        <mxCell id="8KenlMF8k856APXQgud9-5" style="edgeStyle=orthogonalEdgeStyle;rounded=0;orthogonalLoop=1;jettySize=auto;html=1;entryX=0;entryY=0.5;entryDx=0;entryDy=0;" edge="1" parent="1" source="yzI9sUqMzmRR-9goqgxq-28" target="8KenlMF8k856APXQgud9-3">
          <mxGeometry relative="1" as="geometry" />
        </mxCell>
        <mxCell id="yzI9sUqMzmRR-9goqgxq-28" value="Retrieve items in Shopping Cart" style="rounded=1;whiteSpace=wrap;html=1;absoluteArcSize=1;arcSize=14;strokeWidth=2;" parent="1" vertex="1">
          <mxGeometry x="1080" y="2530" width="150" height="190" as="geometry" />
        </mxCell>
        <mxCell id="yzI9sUqMzmRR-9goqgxq-29" value="Retrieve Salable Products" style="rounded=1;whiteSpace=wrap;html=1;absoluteArcSize=1;arcSize=14;strokeWidth=2;" parent="1" vertex="1">
          <mxGeometry x="1080" y="3680" width="185" height="190" as="geometry" />
        </mxCell>
        <mxCell id="8KenlMF8k856APXQgud9-35" style="edgeStyle=orthogonalEdgeStyle;rounded=0;orthogonalLoop=1;jettySize=auto;html=1;" edge="1" parent="1" source="yzI9sUqMzmRR-9goqgxq-30" target="8KenlMF8k856APXQgud9-36">
          <mxGeometry relative="1" as="geometry">
            <mxPoint x="1550" y="4890" as="targetPoint" />
          </mxGeometry>
        </mxCell>
        <mxCell id="yzI9sUqMzmRR-9goqgxq-30" value="Retrieve items in Shopping Cart" style="rounded=1;whiteSpace=wrap;html=1;absoluteArcSize=1;arcSize=14;strokeWidth=2;" parent="1" vertex="1">
          <mxGeometry x="1135" y="5010" width="185" height="190" as="geometry" />
        </mxCell>
        <mxCell id="yzI9sUqMzmRR-9goqgxq-32" style="edgeStyle=orthogonalEdgeStyle;rounded=0;orthogonalLoop=1;jettySize=auto;html=1;entryX=-0.003;entryY=0.554;entryDx=0;entryDy=0;entryPerimeter=0;exitX=1;exitY=0.5;exitDx=0;exitDy=0;exitPerimeter=0;" parent="1" source="yzI9sUqMzmRR-9goqgxq-4" target="yzI9sUqMzmRR-9goqgxq-26" edge="1">
          <mxGeometry relative="1" as="geometry">
            <mxPoint x="585" y="585.1328571428573" as="sourcePoint" />
          </mxGeometry>
        </mxCell>
        <mxCell id="yzI9sUqMzmRR-9goqgxq-33" value="Yes" style="edgeLabel;html=1;align=center;verticalAlign=middle;resizable=0;points=[];" parent="yzI9sUqMzmRR-9goqgxq-32" vertex="1" connectable="0">
          <mxGeometry x="-0.0519" y="-6" relative="1" as="geometry">
            <mxPoint x="1" as="offset" />
          </mxGeometry>
        </mxCell>
        <mxCell id="yzI9sUqMzmRR-9goqgxq-34" style="edgeStyle=orthogonalEdgeStyle;rounded=0;orthogonalLoop=1;jettySize=auto;html=1;entryX=0;entryY=0.5;entryDx=0;entryDy=0;exitX=1;exitY=0.5;exitDx=0;exitDy=0;exitPerimeter=0;" parent="1" source="yzI9sUqMzmRR-9goqgxq-14" target="yzI9sUqMzmRR-9goqgxq-27" edge="1">
          <mxGeometry relative="1" as="geometry">
            <mxPoint x="600" y="1004.33" as="sourcePoint" />
            <mxPoint x="904" y="1004.33" as="targetPoint" />
          </mxGeometry>
        </mxCell>
        <mxCell id="yzI9sUqMzmRR-9goqgxq-35" value="Yes" style="edgeLabel;html=1;align=center;verticalAlign=middle;resizable=0;points=[];" parent="yzI9sUqMzmRR-9goqgxq-34" vertex="1" connectable="0">
          <mxGeometry x="-0.0519" y="-6" relative="1" as="geometry">
            <mxPoint x="1" as="offset" />
          </mxGeometry>
        </mxCell>
        <mxCell id="yzI9sUqMzmRR-9goqgxq-36" style="edgeStyle=orthogonalEdgeStyle;rounded=0;orthogonalLoop=1;jettySize=auto;html=1;exitX=1;exitY=0.5;exitDx=0;exitDy=0;exitPerimeter=0;entryX=0.002;entryY=0.551;entryDx=0;entryDy=0;entryPerimeter=0;" parent="1" source="yzI9sUqMzmRR-9goqgxq-13" target="yzI9sUqMzmRR-9goqgxq-28" edge="1">
          <mxGeometry relative="1" as="geometry" />
        </mxCell>
        <mxCell id="yzI9sUqMzmRR-9goqgxq-43" value="Yes" style="edgeLabel;html=1;align=center;verticalAlign=middle;resizable=0;points=[];" parent="yzI9sUqMzmRR-9goqgxq-36" vertex="1" connectable="0">
          <mxGeometry x="-0.0461" y="-1" relative="1" as="geometry">
            <mxPoint as="offset" />
          </mxGeometry>
        </mxCell>
        <mxCell id="yzI9sUqMzmRR-9goqgxq-37" style="edgeStyle=orthogonalEdgeStyle;rounded=0;orthogonalLoop=1;jettySize=auto;html=1;entryX=-0.008;entryY=0.555;entryDx=0;entryDy=0;entryPerimeter=0;" parent="1" source="yzI9sUqMzmRR-9goqgxq-12" target="yzI9sUqMzmRR-9goqgxq-29" edge="1">
          <mxGeometry relative="1" as="geometry" />
        </mxCell>
        <mxCell id="yzI9sUqMzmRR-9goqgxq-42" value="Yes" style="edgeLabel;html=1;align=center;verticalAlign=middle;resizable=0;points=[];" parent="yzI9sUqMzmRR-9goqgxq-37" vertex="1" connectable="0">
          <mxGeometry x="-0.0674" y="-5" relative="1" as="geometry">
            <mxPoint x="1" as="offset" />
          </mxGeometry>
        </mxCell>
        <mxCell id="zypE5ITx2ImbV6XnPkiI-25" style="edgeStyle=orthogonalEdgeStyle;rounded=0;orthogonalLoop=1;jettySize=auto;html=1;entryX=1;entryY=0.5;entryDx=0;entryDy=0;entryPerimeter=0;exitX=0.649;exitY=0.012;exitDx=0;exitDy=0;exitPerimeter=0;" parent="1" source="yzI9sUqMzmRR-9goqgxq-44" target="yzI9sUqMzmRR-9goqgxq-7" edge="1">
          <mxGeometry relative="1" as="geometry">
            <mxPoint x="1740" y="575" as="targetPoint" />
            <Array as="points">
              <mxPoint x="1530" y="693" />
              <mxPoint x="1530" y="440" />
            </Array>
          </mxGeometry>
        </mxCell>
        <mxCell id="yzI9sUqMzmRR-9goqgxq-44" value="&lt;br&gt;&lt;br&gt;&lt;br&gt;*Display Salable Products*&lt;br&gt;&lt;br style=&quot;border-color: var(--border-color);&quot;&gt;&lt;div style=&quot;border-color: var(--border-color);&quot;&gt;&lt;/div&gt;" style="strokeWidth=2;html=1;shape=mxgraph.flowchart.display;whiteSpace=wrap;" parent="1" vertex="1">
          <mxGeometry x="1390" y="690.63" width="230" height="168.75" as="geometry" />
        </mxCell>
        <mxCell id="zypE5ITx2ImbV6XnPkiI-1" style="edgeStyle=orthogonalEdgeStyle;rounded=0;orthogonalLoop=1;jettySize=auto;html=1;exitX=1;exitY=0.5;exitDx=0;exitDy=0;exitPerimeter=0;entryX=0;entryY=0.5;entryDx=0;entryDy=0;" parent="1" source="zypE5ITx2ImbV6XnPkiI-3" target="zypE5ITx2ImbV6XnPkiI-4" edge="1">
          <mxGeometry relative="1" as="geometry" />
        </mxCell>
        <mxCell id="zypE5ITx2ImbV6XnPkiI-2" value="Yes" style="edgeLabel;html=1;align=center;verticalAlign=middle;resizable=0;points=[];" parent="zypE5ITx2ImbV6XnPkiI-1" vertex="1" connectable="0">
          <mxGeometry x="-0.0091" y="-4" relative="1" as="geometry">
            <mxPoint as="offset" />
          </mxGeometry>
        </mxCell>
        <mxCell id="zypE5ITx2ImbV6XnPkiI-176" style="edgeStyle=orthogonalEdgeStyle;rounded=0;orthogonalLoop=1;jettySize=auto;html=1;" parent="1" source="zypE5ITx2ImbV6XnPkiI-3" target="zypE5ITx2ImbV6XnPkiI-177" edge="1">
          <mxGeometry relative="1" as="geometry">
            <mxPoint x="482.5" y="7870" as="targetPoint" />
          </mxGeometry>
        </mxCell>
        <mxCell id="zypE5ITx2ImbV6XnPkiI-185" value="no" style="edgeLabel;html=1;align=center;verticalAlign=middle;resizable=0;points=[];" parent="zypE5ITx2ImbV6XnPkiI-176" vertex="1" connectable="0">
          <mxGeometry x="-0.0275" relative="1" as="geometry">
            <mxPoint y="1" as="offset" />
          </mxGeometry>
        </mxCell>
        <mxCell id="zypE5ITx2ImbV6XnPkiI-186" value="No" style="edgeLabel;html=1;align=center;verticalAlign=middle;resizable=0;points=[];" parent="zypE5ITx2ImbV6XnPkiI-176" vertex="1" connectable="0">
          <mxGeometry x="-0.018" y="4" relative="1" as="geometry">
            <mxPoint y="1" as="offset" />
          </mxGeometry>
        </mxCell>
        <mxCell id="zypE5ITx2ImbV6XnPkiI-3" value="If entered &#39;E&#39;" style="strokeWidth=2;html=1;shape=mxgraph.flowchart.decision;whiteSpace=wrap;" parent="1" vertex="1">
          <mxGeometry x="380" y="6390" width="205" height="190" as="geometry" />
        </mxCell>
        <mxCell id="zypE5ITx2ImbV6XnPkiI-4" value="Process user Input" style="rounded=1;whiteSpace=wrap;html=1;absoluteArcSize=1;arcSize=14;strokeWidth=2;" parent="1" vertex="1">
          <mxGeometry x="1150" y="6390" width="185" height="190" as="geometry" />
        </mxCell>
        <mxCell id="zypE5ITx2ImbV6XnPkiI-20" style="edgeStyle=orthogonalEdgeStyle;rounded=0;orthogonalLoop=1;jettySize=auto;html=1;entryX=0;entryY=0.5;entryDx=0;entryDy=0;" parent="1" source="zypE5ITx2ImbV6XnPkiI-7" target="zypE5ITx2ImbV6XnPkiI-21" edge="1">
          <mxGeometry relative="1" as="geometry">
            <mxPoint x="1730" y="1007.5" as="targetPoint" />
          </mxGeometry>
        </mxCell>
        <mxCell id="zypE5ITx2ImbV6XnPkiI-7" value="&lt;br&gt;Enter Product Name to Add:&lt;br&gt;*Products shown here*&lt;div&gt;&lt;br/&gt;&lt;/div&gt;" style="strokeWidth=2;html=1;shape=mxgraph.flowchart.display;whiteSpace=wrap;" parent="1" vertex="1">
          <mxGeometry x="1275" y="1558" width="235" height="185" as="geometry" />
        </mxCell>
        <mxCell id="zypE5ITx2ImbV6XnPkiI-8" style="edgeStyle=orthogonalEdgeStyle;rounded=0;orthogonalLoop=1;jettySize=auto;html=1;exitX=1;exitY=0.5;exitDx=0;exitDy=0;entryX=0;entryY=0.5;entryDx=0;entryDy=0;entryPerimeter=0;" parent="1" source="yzI9sUqMzmRR-9goqgxq-26" target="yzI9sUqMzmRR-9goqgxq-44" edge="1">
          <mxGeometry relative="1" as="geometry" />
        </mxCell>
        <mxCell id="zypE5ITx2ImbV6XnPkiI-46" style="edgeStyle=orthogonalEdgeStyle;rounded=0;orthogonalLoop=1;jettySize=auto;html=1;" parent="1" source="zypE5ITx2ImbV6XnPkiI-11" target="zypE5ITx2ImbV6XnPkiI-47" edge="1">
          <mxGeometry relative="1" as="geometry">
            <mxPoint x="1780" y="1230" as="targetPoint" />
          </mxGeometry>
        </mxCell>
        <mxCell id="zypE5ITx2ImbV6XnPkiI-11" value="Enter Product Name to remove&lt;br&gt;*Products shown here*" style="strokeWidth=2;html=1;shape=mxgraph.flowchart.display;whiteSpace=wrap;" parent="1" vertex="1">
          <mxGeometry x="1910" y="2530" width="300" height="200" as="geometry" />
        </mxCell>
        <mxCell id="zypE5ITx2ImbV6XnPkiI-12" style="edgeStyle=orthogonalEdgeStyle;rounded=0;orthogonalLoop=1;jettySize=auto;html=1;entryX=0;entryY=0.5;entryDx=0;entryDy=0;entryPerimeter=0;" parent="1" target="zypE5ITx2ImbV6XnPkiI-13" edge="1">
          <mxGeometry relative="1" as="geometry">
            <mxPoint x="1500" y="3790" as="targetPoint" />
            <mxPoint x="1265" y="3790" as="sourcePoint" />
          </mxGeometry>
        </mxCell>
        <mxCell id="zypE5ITx2ImbV6XnPkiI-128" style="edgeStyle=orthogonalEdgeStyle;rounded=0;orthogonalLoop=1;jettySize=auto;html=1;" parent="1" source="zypE5ITx2ImbV6XnPkiI-13" target="zypE5ITx2ImbV6XnPkiI-129" edge="1">
          <mxGeometry relative="1" as="geometry">
            <mxPoint x="1990" y="3787.5" as="targetPoint" />
          </mxGeometry>
        </mxCell>
        <mxCell id="zypE5ITx2ImbV6XnPkiI-13" value="&lt;br&gt;Enter Product you would like to return:&lt;br&gt;*Products shown here*&lt;div&gt;&lt;br&gt;&lt;/div&gt;" style="strokeWidth=2;html=1;shape=mxgraph.flowchart.display;whiteSpace=wrap;" parent="1" vertex="1">
          <mxGeometry x="1540" y="3695" width="235" height="185" as="geometry" />
        </mxCell>
        <mxCell id="zypE5ITx2ImbV6XnPkiI-14" style="edgeStyle=orthogonalEdgeStyle;rounded=0;orthogonalLoop=1;jettySize=auto;html=1;entryX=0;entryY=0.5;entryDx=0;entryDy=0;entryPerimeter=0;" parent="1" target="zypE5ITx2ImbV6XnPkiI-15" edge="1">
          <mxGeometry relative="1" as="geometry">
            <mxPoint x="1555" y="5100" as="targetPoint" />
            <mxPoint x="1320" y="5100" as="sourcePoint" />
          </mxGeometry>
        </mxCell>
        <mxCell id="zypE5ITx2ImbV6XnPkiI-152" style="edgeStyle=orthogonalEdgeStyle;rounded=0;orthogonalLoop=1;jettySize=auto;html=1;" parent="1" source="zypE5ITx2ImbV6XnPkiI-15" target="zypE5ITx2ImbV6XnPkiI-153" edge="1">
          <mxGeometry relative="1" as="geometry">
            <mxPoint x="2130" y="5010" as="targetPoint" />
          </mxGeometry>
        </mxCell>
        <mxCell id="zypE5ITx2ImbV6XnPkiI-15" value="Are you sure you&#39;d like to check out?&lt;br&gt;Y: Confirm Checkout&lt;div&gt;&lt;br/&gt;&lt;/div&gt;" style="strokeWidth=2;html=1;shape=mxgraph.flowchart.display;whiteSpace=wrap;" parent="1" vertex="1">
          <mxGeometry x="1640" y="5010" width="235" height="185" as="geometry" />
        </mxCell>
        <mxCell id="zypE5ITx2ImbV6XnPkiI-18" style="edgeStyle=orthogonalEdgeStyle;rounded=0;orthogonalLoop=1;jettySize=auto;html=1;entryX=0.021;entryY=0.514;entryDx=0;entryDy=0;entryPerimeter=0;exitX=1;exitY=0.5;exitDx=0;exitDy=0;" parent="1" source="zypE5ITx2ImbV6XnPkiI-4" target="zypE5ITx2ImbV6XnPkiI-19" edge="1">
          <mxGeometry relative="1" as="geometry">
            <mxPoint x="1555" y="7515" as="targetPoint" />
            <mxPoint x="1400" y="6630" as="sourcePoint" />
          </mxGeometry>
        </mxCell>
        <mxCell id="8KenlMF8k856APXQgud9-26" style="edgeStyle=orthogonalEdgeStyle;rounded=0;orthogonalLoop=1;jettySize=auto;html=1;" edge="1" parent="1" source="zypE5ITx2ImbV6XnPkiI-19" target="8KenlMF8k856APXQgud9-27">
          <mxGeometry relative="1" as="geometry">
            <mxPoint x="2180" y="6482.5" as="targetPoint" />
          </mxGeometry>
        </mxCell>
        <mxCell id="zypE5ITx2ImbV6XnPkiI-19" value="See you next time!" style="strokeWidth=2;html=1;shape=mxgraph.flowchart.display;whiteSpace=wrap;" parent="1" vertex="1">
          <mxGeometry x="1650" y="6390" width="235" height="185" as="geometry" />
        </mxCell>
        <mxCell id="zypE5ITx2ImbV6XnPkiI-81" style="edgeStyle=orthogonalEdgeStyle;rounded=0;orthogonalLoop=1;jettySize=auto;html=1;exitX=1;exitY=0.25;exitDx=0;exitDy=0;" parent="1" source="zypE5ITx2ImbV6XnPkiI-21" target="zypE5ITx2ImbV6XnPkiI-82" edge="1">
          <mxGeometry relative="1" as="geometry">
            <mxPoint x="2140" y="920" as="targetPoint" />
          </mxGeometry>
        </mxCell>
        <mxCell id="zypE5ITx2ImbV6XnPkiI-84" style="edgeStyle=orthogonalEdgeStyle;rounded=0;orthogonalLoop=1;jettySize=auto;html=1;exitX=1;exitY=0.75;exitDx=0;exitDy=0;entryX=0;entryY=0.5;entryDx=0;entryDy=0;entryPerimeter=0;" parent="1" source="zypE5ITx2ImbV6XnPkiI-21" target="zypE5ITx2ImbV6XnPkiI-85" edge="1">
          <mxGeometry relative="1" as="geometry">
            <mxPoint x="2100" y="1056" as="targetPoint" />
          </mxGeometry>
        </mxCell>
        <mxCell id="zypE5ITx2ImbV6XnPkiI-21" value="Process User Input" style="rounded=1;whiteSpace=wrap;html=1;absoluteArcSize=1;arcSize=14;strokeWidth=2;" parent="1" vertex="1">
          <mxGeometry x="1810" y="1555.5" width="185" height="190" as="geometry" />
        </mxCell>
        <mxCell id="zypE5ITx2ImbV6XnPkiI-48" style="edgeStyle=orthogonalEdgeStyle;rounded=0;orthogonalLoop=1;jettySize=auto;html=1;" parent="1" source="zypE5ITx2ImbV6XnPkiI-47" target="zypE5ITx2ImbV6XnPkiI-49" edge="1">
          <mxGeometry relative="1" as="geometry">
            <mxPoint x="2150" y="1230" as="targetPoint" />
            <Array as="points">
              <mxPoint x="2660" y="2635" />
              <mxPoint x="2660" y="2505" />
            </Array>
          </mxGeometry>
        </mxCell>
        <mxCell id="zypE5ITx2ImbV6XnPkiI-52" style="edgeStyle=orthogonalEdgeStyle;rounded=0;orthogonalLoop=1;jettySize=auto;html=1;exitX=1;exitY=0.5;exitDx=0;exitDy=0;" parent="1" source="zypE5ITx2ImbV6XnPkiI-47" target="zypE5ITx2ImbV6XnPkiI-53" edge="1">
          <mxGeometry relative="1" as="geometry">
            <mxPoint x="2130" y="1320" as="targetPoint" />
          </mxGeometry>
        </mxCell>
        <mxCell id="zypE5ITx2ImbV6XnPkiI-47" value="Process User Input" style="rounded=1;whiteSpace=wrap;html=1;absoluteArcSize=1;arcSize=14;strokeWidth=2;" parent="1" vertex="1">
          <mxGeometry x="2325" y="2523.75" width="210" height="220" as="geometry" />
        </mxCell>
        <mxCell id="8KenlMF8k856APXQgud9-16" style="edgeStyle=orthogonalEdgeStyle;rounded=0;orthogonalLoop=1;jettySize=auto;html=1;exitX=0.5;exitY=0;exitDx=0;exitDy=0;exitPerimeter=0;" edge="1" parent="1" source="zypE5ITx2ImbV6XnPkiI-49" target="8KenlMF8k856APXQgud9-17">
          <mxGeometry relative="1" as="geometry">
            <mxPoint x="3110" y="2310" as="targetPoint" />
          </mxGeometry>
        </mxCell>
        <mxCell id="zypE5ITx2ImbV6XnPkiI-49" value="If entered anything else" style="strokeWidth=2;html=1;shape=mxgraph.flowchart.decision;whiteSpace=wrap;" parent="1" vertex="1">
          <mxGeometry x="2810" y="2440" width="160" height="130" as="geometry" />
        </mxCell>
        <mxCell id="zypE5ITx2ImbV6XnPkiI-54" style="edgeStyle=orthogonalEdgeStyle;rounded=0;orthogonalLoop=1;jettySize=auto;html=1;exitX=1;exitY=0.5;exitDx=0;exitDy=0;exitPerimeter=0;" parent="1" source="zypE5ITx2ImbV6XnPkiI-53" target="zypE5ITx2ImbV6XnPkiI-55" edge="1">
          <mxGeometry relative="1" as="geometry">
            <mxPoint x="2460" y="1296" as="targetPoint" />
          </mxGeometry>
        </mxCell>
        <mxCell id="zypE5ITx2ImbV6XnPkiI-58" value="Yes" style="edgeLabel;html=1;align=center;verticalAlign=middle;resizable=0;points=[];" parent="zypE5ITx2ImbV6XnPkiI-54" vertex="1" connectable="0">
          <mxGeometry x="-0.2246" y="4" relative="1" as="geometry">
            <mxPoint x="1" as="offset" />
          </mxGeometry>
        </mxCell>
        <mxCell id="zypE5ITx2ImbV6XnPkiI-53" value="If entered product command" style="strokeWidth=2;html=1;shape=mxgraph.flowchart.decision;whiteSpace=wrap;" parent="1" vertex="1">
          <mxGeometry x="2790" y="2670" width="150" height="130" as="geometry" />
        </mxCell>
        <mxCell id="zypE5ITx2ImbV6XnPkiI-56" style="edgeStyle=orthogonalEdgeStyle;rounded=0;orthogonalLoop=1;jettySize=auto;html=1;" parent="1" source="zypE5ITx2ImbV6XnPkiI-55" target="zypE5ITx2ImbV6XnPkiI-57" edge="1">
          <mxGeometry relative="1" as="geometry">
            <mxPoint x="2690" y="1296" as="targetPoint" />
          </mxGeometry>
        </mxCell>
        <mxCell id="zypE5ITx2ImbV6XnPkiI-55" value="Remove product from shopping cart" style="rounded=1;whiteSpace=wrap;html=1;absoluteArcSize=1;arcSize=14;strokeWidth=2;" parent="1" vertex="1">
          <mxGeometry x="3130" y="2525" width="100" height="100" as="geometry" />
        </mxCell>
        <mxCell id="8KenlMF8k856APXQgud9-19" style="edgeStyle=orthogonalEdgeStyle;rounded=0;orthogonalLoop=1;jettySize=auto;html=1;" edge="1" parent="1" source="zypE5ITx2ImbV6XnPkiI-57" target="yzI9sUqMzmRR-9goqgxq-7">
          <mxGeometry relative="1" as="geometry">
            <Array as="points">
              <mxPoint x="3990" y="440" />
            </Array>
          </mxGeometry>
        </mxCell>
        <mxCell id="zypE5ITx2ImbV6XnPkiI-57" value="&lt;br&gt;&lt;br&gt;&lt;br&gt;Product Removed successfully.&amp;nbsp;&lt;br&gt;&lt;br&gt;&lt;div&gt;&lt;br&gt;&lt;/div&gt;" style="strokeWidth=2;html=1;shape=mxgraph.flowchart.display;whiteSpace=wrap;" parent="1" vertex="1">
          <mxGeometry x="3860" y="2477" width="330" height="193" as="geometry" />
        </mxCell>
        <mxCell id="zypE5ITx2ImbV6XnPkiI-83" style="edgeStyle=orthogonalEdgeStyle;rounded=0;orthogonalLoop=1;jettySize=auto;html=1;exitX=0.5;exitY=0;exitDx=0;exitDy=0;exitPerimeter=0;" parent="1" source="zypE5ITx2ImbV6XnPkiI-82" edge="1">
          <mxGeometry relative="1" as="geometry">
            <mxPoint x="1960" y="440" as="targetPoint" />
            <Array as="points">
              <mxPoint x="2000" y="870" />
            </Array>
          </mxGeometry>
        </mxCell>
        <mxCell id="zypE5ITx2ImbV6XnPkiI-114" value="Yes" style="edgeLabel;html=1;align=center;verticalAlign=middle;resizable=0;points=[];" parent="zypE5ITx2ImbV6XnPkiI-83" vertex="1" connectable="0">
          <mxGeometry x="-0.4776" y="-3" relative="1" as="geometry">
            <mxPoint y="-1" as="offset" />
          </mxGeometry>
        </mxCell>
        <mxCell id="8KenlMF8k856APXQgud9-12" style="edgeStyle=orthogonalEdgeStyle;rounded=0;orthogonalLoop=1;jettySize=auto;html=1;" edge="1" parent="1" source="zypE5ITx2ImbV6XnPkiI-82" target="8KenlMF8k856APXQgud9-13">
          <mxGeometry relative="1" as="geometry">
            <mxPoint x="2340" y="1360" as="targetPoint" />
          </mxGeometry>
        </mxCell>
        <mxCell id="zypE5ITx2ImbV6XnPkiI-82" value="If entered invalid Product" style="strokeWidth=2;html=1;shape=mxgraph.flowchart.decision;whiteSpace=wrap;" parent="1" vertex="1">
          <mxGeometry x="2070" y="1380" width="170" height="150" as="geometry" />
        </mxCell>
        <mxCell id="zypE5ITx2ImbV6XnPkiI-86" style="edgeStyle=orthogonalEdgeStyle;rounded=0;orthogonalLoop=1;jettySize=auto;html=1;" parent="1" source="zypE5ITx2ImbV6XnPkiI-85" target="zypE5ITx2ImbV6XnPkiI-87" edge="1">
          <mxGeometry relative="1" as="geometry">
            <mxPoint x="2340" y="1053.75" as="targetPoint" />
          </mxGeometry>
        </mxCell>
        <mxCell id="zypE5ITx2ImbV6XnPkiI-85" value="&lt;br&gt;If entered product command" style="strokeWidth=2;html=1;shape=mxgraph.flowchart.decision;whiteSpace=wrap;" parent="1" vertex="1">
          <mxGeometry x="2150" y="1740" width="110" height="107.5" as="geometry" />
        </mxCell>
        <mxCell id="zypE5ITx2ImbV6XnPkiI-87" value="Add product to Shopping Cart" style="rounded=1;whiteSpace=wrap;html=1;absoluteArcSize=1;arcSize=14;strokeWidth=2;" parent="1" vertex="1">
          <mxGeometry x="2740" y="1743" width="100" height="100" as="geometry" />
        </mxCell>
        <mxCell id="8KenlMF8k856APXQgud9-15" style="edgeStyle=orthogonalEdgeStyle;rounded=0;orthogonalLoop=1;jettySize=auto;html=1;" edge="1" parent="1" source="zypE5ITx2ImbV6XnPkiI-88" target="yzI9sUqMzmRR-9goqgxq-7">
          <mxGeometry relative="1" as="geometry">
            <Array as="points">
              <mxPoint x="3400" y="440" />
            </Array>
          </mxGeometry>
        </mxCell>
        <mxCell id="zypE5ITx2ImbV6XnPkiI-88" value="&lt;br&gt;&lt;br&gt;&lt;br&gt;&lt;br&gt;&lt;br&gt;Product added successfully.&amp;nbsp;&lt;br&gt;&lt;br&gt;&lt;br&gt;&lt;div&gt;&lt;br&gt;&lt;/div&gt;" style="strokeWidth=2;html=1;shape=mxgraph.flowchart.display;whiteSpace=wrap;" parent="1" vertex="1">
          <mxGeometry x="3190" y="1697.25" width="330" height="193" as="geometry" />
        </mxCell>
        <mxCell id="zypE5ITx2ImbV6XnPkiI-89" style="edgeStyle=orthogonalEdgeStyle;rounded=0;orthogonalLoop=1;jettySize=auto;html=1;entryX=0;entryY=0.5;entryDx=0;entryDy=0;entryPerimeter=0;" parent="1" source="zypE5ITx2ImbV6XnPkiI-87" target="zypE5ITx2ImbV6XnPkiI-88" edge="1">
          <mxGeometry relative="1" as="geometry" />
        </mxCell>
        <mxCell id="zypE5ITx2ImbV6XnPkiI-131" value="" style="edgeStyle=orthogonalEdgeStyle;rounded=0;orthogonalLoop=1;jettySize=auto;html=1;" parent="1" source="zypE5ITx2ImbV6XnPkiI-129" target="zypE5ITx2ImbV6XnPkiI-130" edge="1">
          <mxGeometry relative="1" as="geometry" />
        </mxCell>
        <mxCell id="zypE5ITx2ImbV6XnPkiI-146" style="edgeStyle=orthogonalEdgeStyle;rounded=0;orthogonalLoop=1;jettySize=auto;html=1;exitX=1;exitY=0.5;exitDx=0;exitDy=0;" parent="1" source="zypE5ITx2ImbV6XnPkiI-129" target="zypE5ITx2ImbV6XnPkiI-147" edge="1">
          <mxGeometry relative="1" as="geometry">
            <mxPoint x="2670" y="3788" as="targetPoint" />
          </mxGeometry>
        </mxCell>
        <mxCell id="zypE5ITx2ImbV6XnPkiI-129" value="Process User Input" style="rounded=1;whiteSpace=wrap;html=1;absoluteArcSize=1;arcSize=14;strokeWidth=2;" parent="1" vertex="1">
          <mxGeometry x="1940" y="3737.5" width="100" height="100" as="geometry" />
        </mxCell>
        <mxCell id="zypE5ITx2ImbV6XnPkiI-134" style="edgeStyle=orthogonalEdgeStyle;rounded=0;orthogonalLoop=1;jettySize=auto;html=1;" parent="1" source="zypE5ITx2ImbV6XnPkiI-130" target="zypE5ITx2ImbV6XnPkiI-135" edge="1">
          <mxGeometry relative="1" as="geometry">
            <mxPoint x="2580" y="3655" as="targetPoint" />
          </mxGeometry>
        </mxCell>
        <mxCell id="zypE5ITx2ImbV6XnPkiI-130" value="If selected product command" style="rhombus;whiteSpace=wrap;html=1;rounded=1;arcSize=14;strokeWidth=2;" parent="1" vertex="1">
          <mxGeometry x="2160" y="3560" width="210" height="190" as="geometry" />
        </mxCell>
        <mxCell id="zypE5ITx2ImbV6XnPkiI-139" style="edgeStyle=orthogonalEdgeStyle;rounded=0;orthogonalLoop=1;jettySize=auto;html=1;" parent="1" source="zypE5ITx2ImbV6XnPkiI-135" target="zypE5ITx2ImbV6XnPkiI-140" edge="1">
          <mxGeometry relative="1" as="geometry">
            <mxPoint x="2800" y="3655" as="targetPoint" />
          </mxGeometry>
        </mxCell>
        <mxCell id="zypE5ITx2ImbV6XnPkiI-135" value="Add product back to inventory" style="rounded=1;whiteSpace=wrap;html=1;absoluteArcSize=1;arcSize=14;strokeWidth=2;" parent="1" vertex="1">
          <mxGeometry x="2530" y="3605" width="100" height="100" as="geometry" />
        </mxCell>
        <mxCell id="8KenlMF8k856APXQgud9-33" style="edgeStyle=orthogonalEdgeStyle;rounded=0;orthogonalLoop=1;jettySize=auto;html=1;" edge="1" parent="1" source="zypE5ITx2ImbV6XnPkiI-140" target="yzI9sUqMzmRR-9goqgxq-7">
          <mxGeometry relative="1" as="geometry">
            <Array as="points">
              <mxPoint x="2890" y="3540" />
              <mxPoint y="3540" />
              <mxPoint y="440" />
            </Array>
          </mxGeometry>
        </mxCell>
        <mxCell id="zypE5ITx2ImbV6XnPkiI-140" value="Product Returned Successfully" style="strokeWidth=2;html=1;shape=mxgraph.flowchart.display;whiteSpace=wrap;" parent="1" vertex="1">
          <mxGeometry x="2795" y="3582.5" width="190" height="145" as="geometry" />
        </mxCell>
        <mxCell id="zypE5ITx2ImbV6XnPkiI-148" style="edgeStyle=orthogonalEdgeStyle;rounded=0;orthogonalLoop=1;jettySize=auto;html=1;" parent="1" source="zypE5ITx2ImbV6XnPkiI-147" target="zypE5ITx2ImbV6XnPkiI-149" edge="1">
          <mxGeometry relative="1" as="geometry">
            <mxPoint x="2990" y="3787.5" as="targetPoint" />
          </mxGeometry>
        </mxCell>
        <mxCell id="zypE5ITx2ImbV6XnPkiI-147" value="If entered anything else" style="strokeWidth=2;html=1;shape=mxgraph.flowchart.decision;whiteSpace=wrap;" parent="1" vertex="1">
          <mxGeometry x="2650" y="3721.5" width="170" height="132" as="geometry" />
        </mxCell>
        <mxCell id="8KenlMF8k856APXQgud9-20" style="edgeStyle=orthogonalEdgeStyle;rounded=0;orthogonalLoop=1;jettySize=auto;html=1;" edge="1" parent="1" source="zypE5ITx2ImbV6XnPkiI-149" target="zypE5ITx2ImbV6XnPkiI-13">
          <mxGeometry relative="1" as="geometry">
            <Array as="points">
              <mxPoint x="3110" y="4060" />
              <mxPoint x="1658" y="4060" />
            </Array>
          </mxGeometry>
        </mxCell>
        <mxCell id="zypE5ITx2ImbV6XnPkiI-149" value="Invalid Input. Try again." style="strokeWidth=2;html=1;shape=mxgraph.flowchart.display;whiteSpace=wrap;" parent="1" vertex="1">
          <mxGeometry x="2970" y="3707.5" width="280" height="162.5" as="geometry" />
        </mxCell>
        <mxCell id="zypE5ITx2ImbV6XnPkiI-154" style="edgeStyle=orthogonalEdgeStyle;rounded=0;orthogonalLoop=1;jettySize=auto;html=1;" parent="1" source="zypE5ITx2ImbV6XnPkiI-153" target="zypE5ITx2ImbV6XnPkiI-155" edge="1">
          <mxGeometry relative="1" as="geometry">
            <mxPoint x="2430" y="4930" as="targetPoint" />
          </mxGeometry>
        </mxCell>
        <mxCell id="8KenlMF8k856APXQgud9-22" style="edgeStyle=orthogonalEdgeStyle;rounded=0;orthogonalLoop=1;jettySize=auto;html=1;" edge="1" parent="1" source="zypE5ITx2ImbV6XnPkiI-153" target="8KenlMF8k856APXQgud9-23">
          <mxGeometry relative="1" as="geometry">
            <mxPoint x="2530" y="5130" as="targetPoint" />
          </mxGeometry>
        </mxCell>
        <mxCell id="zypE5ITx2ImbV6XnPkiI-153" value="Process Input" style="rounded=1;whiteSpace=wrap;html=1;absoluteArcSize=1;arcSize=14;strokeWidth=2;" parent="1" vertex="1">
          <mxGeometry x="2100" y="5052.5" width="130" height="100" as="geometry" />
        </mxCell>
        <mxCell id="zypE5ITx2ImbV6XnPkiI-156" style="edgeStyle=orthogonalEdgeStyle;rounded=0;orthogonalLoop=1;jettySize=auto;html=1;" parent="1" source="zypE5ITx2ImbV6XnPkiI-155" target="zypE5ITx2ImbV6XnPkiI-157" edge="1">
          <mxGeometry relative="1" as="geometry">
            <mxPoint x="2740" y="4930" as="targetPoint" />
          </mxGeometry>
        </mxCell>
        <mxCell id="8KenlMF8k856APXQgud9-21" value="Yes" style="edgeLabel;html=1;align=center;verticalAlign=middle;resizable=0;points=[];" vertex="1" connectable="0" parent="zypE5ITx2ImbV6XnPkiI-156">
          <mxGeometry x="-0.0921" y="1" relative="1" as="geometry">
            <mxPoint x="-1" as="offset" />
          </mxGeometry>
        </mxCell>
        <mxCell id="zypE5ITx2ImbV6XnPkiI-155" value="If entered Y" style="strokeWidth=2;html=1;shape=mxgraph.flowchart.decision;whiteSpace=wrap;" parent="1" vertex="1">
          <mxGeometry x="2380" y="4880" width="100" height="100" as="geometry" />
        </mxCell>
        <mxCell id="zypE5ITx2ImbV6XnPkiI-158" style="edgeStyle=orthogonalEdgeStyle;rounded=0;orthogonalLoop=1;jettySize=auto;html=1;" parent="1" source="zypE5ITx2ImbV6XnPkiI-157" target="zypE5ITx2ImbV6XnPkiI-159" edge="1">
          <mxGeometry relative="1" as="geometry">
            <mxPoint x="2930" y="4930" as="targetPoint" />
          </mxGeometry>
        </mxCell>
        <mxCell id="zypE5ITx2ImbV6XnPkiI-157" value="Remove products from inventory and shopping Cart" style="rounded=1;whiteSpace=wrap;html=1;absoluteArcSize=1;arcSize=14;strokeWidth=2;" parent="1" vertex="1">
          <mxGeometry x="2690" y="4880" width="100" height="100" as="geometry" />
        </mxCell>
        <mxCell id="zypE5ITx2ImbV6XnPkiI-160" style="edgeStyle=orthogonalEdgeStyle;rounded=0;orthogonalLoop=1;jettySize=auto;html=1;entryX=0;entryY=0.5;entryDx=0;entryDy=0;entryPerimeter=0;" parent="1" source="zypE5ITx2ImbV6XnPkiI-159" target="yzI9sUqMzmRR-9goqgxq-7" edge="1">
          <mxGeometry relative="1" as="geometry">
            <mxPoint x="3260" y="4930" as="targetPoint" />
            <Array as="points">
              <mxPoint x="3035" y="4820" />
              <mxPoint y="4820" />
              <mxPoint y="440" />
            </Array>
          </mxGeometry>
        </mxCell>
        <mxCell id="zypE5ITx2ImbV6XnPkiI-159" value="&lt;br&gt;Checkout print statement&lt;div&gt;&lt;br&gt;&lt;/div&gt;" style="strokeWidth=2;html=1;shape=mxgraph.flowchart.display;whiteSpace=wrap;" parent="1" vertex="1">
          <mxGeometry x="2930" y="4862.5" width="210" height="135" as="geometry" />
        </mxCell>
        <mxCell id="zypE5ITx2ImbV6XnPkiI-178" style="edgeStyle=orthogonalEdgeStyle;rounded=0;orthogonalLoop=1;jettySize=auto;html=1;" parent="1" source="zypE5ITx2ImbV6XnPkiI-177" target="zypE5ITx2ImbV6XnPkiI-179" edge="1">
          <mxGeometry relative="1" as="geometry">
            <mxPoint x="1140" y="7945" as="targetPoint" />
          </mxGeometry>
        </mxCell>
        <mxCell id="zypE5ITx2ImbV6XnPkiI-177" value="If entered anything else" style="strokeWidth=2;html=1;shape=mxgraph.flowchart.decision;whiteSpace=wrap;" parent="1" vertex="1">
          <mxGeometry x="403.75" y="7840" width="157.5" height="210" as="geometry" />
        </mxCell>
        <mxCell id="zypE5ITx2ImbV6XnPkiI-180" style="edgeStyle=orthogonalEdgeStyle;rounded=0;orthogonalLoop=1;jettySize=auto;html=1;" parent="1" source="zypE5ITx2ImbV6XnPkiI-179" target="zypE5ITx2ImbV6XnPkiI-181" edge="1">
          <mxGeometry relative="1" as="geometry">
            <mxPoint x="1420" y="7945" as="targetPoint" />
          </mxGeometry>
        </mxCell>
        <mxCell id="zypE5ITx2ImbV6XnPkiI-179" value="Process User Input" style="rounded=1;whiteSpace=wrap;html=1;absoluteArcSize=1;arcSize=14;strokeWidth=2;" parent="1" vertex="1">
          <mxGeometry x="1090" y="7895" width="130" height="100" as="geometry" />
        </mxCell>
        <mxCell id="zypE5ITx2ImbV6XnPkiI-181" value="Invalid input. Taking back to Main Menu" style="strokeWidth=2;html=1;shape=mxgraph.flowchart.display;whiteSpace=wrap;" parent="1" vertex="1">
          <mxGeometry x="1400" y="7866.25" width="350" height="157.5" as="geometry" />
        </mxCell>
        <mxCell id="zypE5ITx2ImbV6XnPkiI-182" style="edgeStyle=orthogonalEdgeStyle;rounded=0;orthogonalLoop=1;jettySize=auto;html=1;entryX=0.011;entryY=0.425;entryDx=0;entryDy=0;entryPerimeter=0;" parent="1" source="zypE5ITx2ImbV6XnPkiI-181" target="yzI9sUqMzmRR-9goqgxq-7" edge="1">
          <mxGeometry relative="1" as="geometry">
            <Array as="points">
              <mxPoint x="1575" y="8080" />
              <mxPoint y="8080" />
              <mxPoint y="422" />
            </Array>
          </mxGeometry>
        </mxCell>
        <mxCell id="8KenlMF8k856APXQgud9-6" style="edgeStyle=orthogonalEdgeStyle;rounded=0;orthogonalLoop=1;jettySize=auto;html=1;" edge="1" parent="1" source="8KenlMF8k856APXQgud9-3">
          <mxGeometry relative="1" as="geometry">
            <mxPoint x="1845" y="2370" as="targetPoint" />
            <mxPoint x="1640" y="2576" as="sourcePoint" />
          </mxGeometry>
        </mxCell>
        <mxCell id="8KenlMF8k856APXQgud9-8" value="Yes" style="edgeLabel;html=1;align=center;verticalAlign=middle;resizable=0;points=[];" vertex="1" connectable="0" parent="8KenlMF8k856APXQgud9-6">
          <mxGeometry x="-0.3431" y="-3" relative="1" as="geometry">
            <mxPoint x="1" as="offset" />
          </mxGeometry>
        </mxCell>
        <mxCell id="8KenlMF8k856APXQgud9-3" value="If cart isEmpty" style="rhombus;whiteSpace=wrap;html=1;" vertex="1" parent="1">
          <mxGeometry x="1470" y="2547.5" width="170" height="155" as="geometry" />
        </mxCell>
        <mxCell id="8KenlMF8k856APXQgud9-11" style="edgeStyle=orthogonalEdgeStyle;rounded=0;orthogonalLoop=1;jettySize=auto;html=1;" edge="1" parent="1" source="8KenlMF8k856APXQgud9-7" target="yzI9sUqMzmRR-9goqgxq-7">
          <mxGeometry relative="1" as="geometry">
            <Array as="points">
              <mxPoint y="2375" />
              <mxPoint y="440" />
            </Array>
          </mxGeometry>
        </mxCell>
        <mxCell id="8KenlMF8k856APXQgud9-7" value="Cart is Empty.&lt;br&gt;Going back to Main Menu." style="strokeWidth=2;html=1;shape=mxgraph.flowchart.display;whiteSpace=wrap;" vertex="1" parent="1">
          <mxGeometry x="1775" y="2330" width="140" height="90" as="geometry" />
        </mxCell>
        <mxCell id="8KenlMF8k856APXQgud9-9" style="edgeStyle=orthogonalEdgeStyle;rounded=0;orthogonalLoop=1;jettySize=auto;html=1;exitX=1;exitY=0.5;exitDx=0;exitDy=0;entryX=0.08;entryY=0.707;entryDx=0;entryDy=0;entryPerimeter=0;" edge="1" parent="1" source="8KenlMF8k856APXQgud9-3" target="zypE5ITx2ImbV6XnPkiI-11">
          <mxGeometry relative="1" as="geometry" />
        </mxCell>
        <mxCell id="8KenlMF8k856APXQgud9-10" value="No" style="edgeLabel;html=1;align=center;verticalAlign=middle;resizable=0;points=[];" vertex="1" connectable="0" parent="8KenlMF8k856APXQgud9-9">
          <mxGeometry x="0.3341" y="-5" relative="1" as="geometry">
            <mxPoint x="-1" as="offset" />
          </mxGeometry>
        </mxCell>
        <mxCell id="8KenlMF8k856APXQgud9-14" style="edgeStyle=orthogonalEdgeStyle;rounded=0;orthogonalLoop=1;jettySize=auto;html=1;entryX=0.5;entryY=0;entryDx=0;entryDy=0;" edge="1" parent="1" source="8KenlMF8k856APXQgud9-13" target="yzI9sUqMzmRR-9goqgxq-27">
          <mxGeometry relative="1" as="geometry" />
        </mxCell>
        <mxCell id="8KenlMF8k856APXQgud9-13" value="Invalid Product: Try again&lt;div&gt;&lt;br/&gt;&lt;/div&gt;" style="strokeWidth=2;html=1;shape=mxgraph.flowchart.display;whiteSpace=wrap;" vertex="1" parent="1">
          <mxGeometry x="2290" y="1280" width="170" height="110" as="geometry" />
        </mxCell>
        <mxCell id="8KenlMF8k856APXQgud9-18" style="edgeStyle=orthogonalEdgeStyle;rounded=0;orthogonalLoop=1;jettySize=auto;html=1;" edge="1" parent="1" source="8KenlMF8k856APXQgud9-17" target="zypE5ITx2ImbV6XnPkiI-11">
          <mxGeometry relative="1" as="geometry" />
        </mxCell>
        <mxCell id="8KenlMF8k856APXQgud9-17" value="Invalid Product Name. Try again.&lt;span style=&quot;background-color:#2f2f2f;padding:0px 0px 0px 2px;&quot;&gt;&lt;/span&gt;" style="strokeWidth=2;html=1;shape=mxgraph.flowchart.display;whiteSpace=wrap;" vertex="1" parent="1">
          <mxGeometry x="3010" y="2190" width="220" height="150" as="geometry" />
        </mxCell>
        <mxCell id="8KenlMF8k856APXQgud9-34" style="edgeStyle=orthogonalEdgeStyle;rounded=0;orthogonalLoop=1;jettySize=auto;html=1;" edge="1" parent="1" source="8KenlMF8k856APXQgud9-23" target="yzI9sUqMzmRR-9goqgxq-7">
          <mxGeometry relative="1" as="geometry">
            <Array as="points">
              <mxPoint x="2575" y="5320" />
              <mxPoint y="5320" />
              <mxPoint y="440" />
            </Array>
          </mxGeometry>
        </mxCell>
        <mxCell id="8KenlMF8k856APXQgud9-23" value="If entered anything else" style="strokeWidth=2;html=1;shape=mxgraph.flowchart.decision;whiteSpace=wrap;" vertex="1" parent="1">
          <mxGeometry x="2480" y="5080" width="190" height="190" as="geometry" />
        </mxCell>
        <mxCell id="8KenlMF8k856APXQgud9-27" value="End" style="strokeWidth=2;html=1;shape=mxgraph.flowchart.terminator;whiteSpace=wrap;" vertex="1" parent="1">
          <mxGeometry x="2130" y="6452.5" width="100" height="60" as="geometry" />
        </mxCell>
        <mxCell id="8KenlMF8k856APXQgud9-37" style="edgeStyle=orthogonalEdgeStyle;rounded=0;orthogonalLoop=1;jettySize=auto;html=1;" edge="1" parent="1" source="8KenlMF8k856APXQgud9-36" target="8KenlMF8k856APXQgud9-38">
          <mxGeometry relative="1" as="geometry">
            <mxPoint x="1920" y="4895" as="targetPoint" />
          </mxGeometry>
        </mxCell>
        <mxCell id="8KenlMF8k856APXQgud9-36" value="If Shopping Cart isEmpty" style="strokeWidth=2;html=1;shape=mxgraph.flowchart.decision;whiteSpace=wrap;" vertex="1" parent="1">
          <mxGeometry x="1475" y="4830" width="160" height="130" as="geometry" />
        </mxCell>
        <mxCell id="8KenlMF8k856APXQgud9-39" style="edgeStyle=orthogonalEdgeStyle;rounded=0;orthogonalLoop=1;jettySize=auto;html=1;" edge="1" parent="1" source="8KenlMF8k856APXQgud9-38" target="yzI9sUqMzmRR-9goqgxq-7">
          <mxGeometry relative="1" as="geometry">
            <Array as="points">
              <mxPoint x="1960" y="4820" />
              <mxPoint y="4820" />
              <mxPoint y="440" />
            </Array>
          </mxGeometry>
        </mxCell>
        <mxCell id="8KenlMF8k856APXQgud9-38" value="Cannot checkout, shoppingCart is empty" style="strokeWidth=2;html=1;shape=mxgraph.flowchart.display;whiteSpace=wrap;" vertex="1" parent="1">
          <mxGeometry x="1885" y="4852.5" width="150" height="85" as="geometry" />
        </mxCell>
      </root>
    </mxGraphModel>
  </diagram>
</mxfile>
